<svg width="209" height="33" viewBox="0 0 209 33" fill="none" xmlns="http://www.w3.org/2000/svg">
<path d="M37.4046 8.41119H31.3936V5.09006H47.1521V8.41119H41.1411V24.4633H37.4046V8.41119ZM51.7944 24.4633C51.0182 24.4633 50.3863 24.2235 49.8989 23.7437C49.4115 23.264 49.1678 22.6367 49.1678 21.8618V5.09006H63.6269V8.41119H52.9045V12.8947H62.8146V16.2159H52.9045V21.1422H63.6269V24.4633H51.7944ZM72.4556 24.6847C71.0657 24.6847 69.8382 24.3803 68.7732 23.7714C67.7262 23.1626 66.9139 22.3046 66.3363 21.1975C65.7587 20.0721 65.4699 18.7805 65.4699 17.3229V12.2305C65.4699 10.7729 65.7587 9.49056 66.3363 8.38352C66.932 7.25802 67.7623 6.39084 68.8274 5.78196C69.9104 5.17309 71.1559 4.86865 72.5639 4.86865H75.434C76.7879 4.86865 77.9792 5.16386 79.0081 5.75429C80.0371 6.34471 80.8313 7.17499 81.3909 8.24514C81.9685 9.29683 82.2573 10.5238 82.2573 11.9261H78.5749C78.5749 10.819 78.2861 9.93338 77.7085 9.26915C77.1308 8.58647 76.3727 8.24514 75.434 8.24514H72.5639C71.5531 8.24514 70.7408 8.6326 70.127 9.40753C69.5133 10.164 69.2064 11.1604 69.2064 12.3965V17.1568C69.2064 18.393 69.5043 19.3986 70.1 20.1735C70.6956 20.93 71.4809 21.3083 72.4556 21.3083H75.3799C76.3366 21.3083 77.1128 20.93 77.7085 20.1735C78.3222 19.4171 78.6291 18.4207 78.6291 17.1845H82.3115C82.3115 18.679 82.0227 19.9983 81.445 21.1422C80.8674 22.2677 80.0551 23.1441 79.0081 23.7714C77.9612 24.3803 76.7518 24.6847 75.3799 24.6847H72.4556ZM84.6532 5.09006H88.3897V13.0885H97.2167V5.09006H100.953V24.4633H97.2167V16.4096H88.3897V24.4633H84.6532V5.09006ZM104.299 5.09006H107.63L116.728 18.2639V5.09006H120.383V24.4633H117.053L107.955 11.2895V24.4633H104.299V5.09006ZM130.422 24.6847C128.996 24.6847 127.732 24.3803 126.631 23.7714C125.548 23.1441 124.7 22.2769 124.086 21.1699C123.49 20.0444 123.193 18.7436 123.193 17.2675V12.2858C123.193 10.8098 123.49 9.51824 124.086 8.41119C124.7 7.2857 125.548 6.41851 126.631 5.80964C127.732 5.18231 128.996 4.86865 130.422 4.86865H133.292C134.718 4.86865 135.973 5.18231 137.056 5.80964C138.157 6.41851 139.005 7.2857 139.601 8.41119C140.215 9.51824 140.522 10.8098 140.522 12.2858V17.2675C140.522 18.7436 140.215 20.0444 139.601 21.1699C139.005 22.2769 138.157 23.1441 137.056 23.7714C135.973 24.3803 134.718 24.6847 133.292 24.6847H130.422ZM133.292 21.3083C134.339 21.3083 135.178 20.9208 135.81 20.1459C136.46 19.3709 136.785 18.3561 136.785 17.1015V12.4519C136.785 11.1973 136.46 10.1825 135.81 9.40753C135.178 8.6326 134.339 8.24514 133.292 8.24514H130.422C129.375 8.24514 128.527 8.6326 127.877 9.40753C127.245 10.1825 126.929 11.1973 126.929 12.4519V17.1015C126.929 18.3561 127.245 19.3709 127.877 20.1459C128.527 20.9208 129.375 21.3083 130.422 21.3083H133.292Z" fill="white"/>
<path d="M143.312 5.14746H146.631L155.696 18.2428V5.14746H159.338V24.4053H156.019L146.955 11.31V24.4053H143.312V5.14746ZM165.294 24.4053C164.52 24.4053 163.891 24.1669 163.405 23.6901C162.92 23.2132 162.677 22.5896 162.677 21.8193V5.14746H177.084V8.44881H166.4V12.9056H176.274V16.207H166.4V21.104H177.084V24.4053H165.294Z" fill="#FF5834"/>
<path d="M178.759 24.4058L190.193 8.49707L194.667 14.5808L187.578 24.4058H178.759Z" fill="#FF5834"/>
<path d="M185.786 14.6369L178.759 5.14746H187.714L190.202 8.62692L185.786 14.6369Z" fill="white"/>
<path d="M198.224 8.44881H192.156V5.14746H208.064V8.44881H201.996V24.4053H198.224V8.44881Z" fill="#FF5834"/>
<path d="M2.4335 2.99122C3.05342 2.99122 3.55596 2.48743 3.55596 1.86597C3.55596 1.24451 3.05342 0.740723 2.4335 0.740723C1.81358 0.740723 1.31104 1.24451 1.31104 1.86597C1.31104 2.48743 1.81358 2.99122 2.4335 2.99122Z" fill="white"/>
<path d="M5.4252 5.99171C6.04511 5.99171 6.54766 5.48792 6.54766 4.86646C6.54766 4.245 6.04511 3.74121 5.4252 3.74121C4.80528 3.74121 4.30273 4.245 4.30273 4.86646C4.30273 5.48792 4.80528 5.99171 5.4252 5.99171Z" fill="white"/>
<path d="M8.4208 8.9922C9.04072 8.9922 9.54326 8.48841 9.54326 7.86695C9.54326 7.24549 9.04072 6.7417 8.4208 6.7417C7.80088 6.7417 7.29834 7.24549 7.29834 7.86695C7.29834 8.48841 7.80088 8.9922 8.4208 8.9922Z" fill="white"/>
<path d="M11.6034 11.9937C12.2233 11.9937 12.7259 11.4899 12.7259 10.8684C12.7259 10.247 12.2233 9.74316 11.6034 9.74316C10.9835 9.74316 10.481 10.247 10.481 10.8684C10.481 11.4899 10.9835 11.9937 11.6034 11.9937Z" fill="white"/>
<path d="M14.5927 14.9917C15.2126 14.9917 15.7151 14.4879 15.7151 13.8665C15.7151 13.245 15.2126 12.7412 14.5927 12.7412C13.9728 12.7412 13.4702 13.245 13.4702 13.8665C13.4702 14.4879 13.9728 14.9917 14.5927 14.9917Z" fill="white"/>
<path d="M5.4252 2.99122C6.04511 2.99122 6.54766 2.48743 6.54766 1.86597C6.54766 1.24451 6.04511 0.740723 5.4252 0.740723C4.80528 0.740723 4.30273 1.24451 4.30273 1.86597C4.30273 2.48743 4.80528 2.99122 5.4252 2.99122Z" fill="white"/>
<path d="M8.4208 5.99171C9.04072 5.99171 9.54326 5.48792 9.54326 4.86646C9.54326 4.245 9.04072 3.74121 8.4208 3.74121C7.80088 3.74121 7.29834 4.245 7.29834 4.86646C7.29834 5.48792 7.80088 5.99171 8.4208 5.99171Z" fill="white"/>
<path d="M11.413 8.9922C12.0329 8.9922 12.5355 8.48841 12.5355 7.86695C12.5355 7.24549 12.0329 6.7417 11.413 6.7417C10.7931 6.7417 10.2905 7.24549 10.2905 7.86695C10.2905 8.48841 10.7931 8.9922 11.413 8.9922Z" fill="white"/>
<path d="M14.5927 11.9937C15.2126 11.9937 15.7151 11.4899 15.7151 10.8684C15.7151 10.247 15.2126 9.74316 14.5927 9.74316C13.9728 9.74316 13.4702 10.247 13.4702 10.8684C13.4702 11.4899 13.9728 11.9937 14.5927 11.9937Z" fill="white"/>
<path d="M17.5893 14.9917C18.2092 14.9917 18.7117 14.4879 18.7117 13.8665C18.7117 13.245 18.2092 12.7412 17.5893 12.7412C16.9693 12.7412 16.4668 13.245 16.4668 13.8665C16.4668 14.4879 16.9693 14.9917 17.5893 14.9917Z" fill="white"/>
<path d="M8.60635 2.99122C9.22627 2.99122 9.72881 2.48743 9.72881 1.86597C9.72881 1.24451 9.22627 0.740723 8.60635 0.740723C7.98643 0.740723 7.48389 1.24451 7.48389 1.86597C7.48389 2.48743 7.98643 2.99122 8.60635 2.99122Z" fill="white"/>
<path d="M11.6034 5.99171C12.2233 5.99171 12.7259 5.48792 12.7259 4.86646C12.7259 4.245 12.2233 3.74121 11.6034 3.74121C10.9835 3.74121 10.481 4.245 10.481 4.86646C10.481 5.48792 10.9835 5.99171 11.6034 5.99171Z" fill="white"/>
<path d="M14.5927 8.9922C15.2126 8.9922 15.7151 8.48841 15.7151 7.86695C15.7151 7.24549 15.2126 6.7417 14.5927 6.7417C13.9728 6.7417 13.4702 7.24549 13.4702 7.86695C13.4702 8.48841 13.9728 8.9922 14.5927 8.9922Z" fill="white"/>
<path d="M17.7738 11.9937C18.3937 11.9937 18.8963 11.4899 18.8963 10.8684C18.8963 10.247 18.3937 9.74316 17.7738 9.74316C17.1539 9.74316 16.6514 10.247 16.6514 10.8684C16.6514 11.4899 17.1539 11.9937 17.7738 11.9937Z" fill="white"/>
<path d="M11.6034 2.99122C12.2233 2.99122 12.7259 2.48743 12.7259 1.86597C12.7259 1.24451 12.2233 0.740723 11.6034 0.740723C10.9835 0.740723 10.481 1.24451 10.481 1.86597C10.481 2.48743 10.9835 2.99122 11.6034 2.99122Z" fill="white"/>
<path d="M14.5927 5.99171C15.2126 5.99171 15.7151 5.48792 15.7151 4.86646C15.7151 4.245 15.2126 3.74121 14.5927 3.74121C13.9728 3.74121 13.4702 4.245 13.4702 4.86646C13.4702 5.48792 13.9728 5.99171 14.5927 5.99171Z" fill="white"/>
<path d="M17.5893 8.9922C18.2092 8.9922 18.7117 8.48841 18.7117 7.86695C18.7117 7.24549 18.2092 6.7417 17.5893 6.7417C16.9693 6.7417 16.4668 7.24549 16.4668 7.86695C16.4668 8.48841 16.9693 8.9922 17.5893 8.9922Z" fill="white"/>
<path d="M20.7689 11.9937C21.3889 11.9937 21.8914 11.4899 21.8914 10.8684C21.8914 10.247 21.3889 9.74316 20.7689 9.74316C20.149 9.74316 19.6465 10.247 19.6465 10.8684C19.6465 11.4899 20.149 11.9937 20.7689 11.9937Z" fill="white"/>
<path d="M14.5927 2.99122C15.2126 2.99122 15.7151 2.48743 15.7151 1.86597C15.7151 1.24451 15.2126 0.740723 14.5927 0.740723C13.9728 0.740723 13.4702 1.24451 13.4702 1.86597C13.4702 2.48743 13.9728 2.99122 14.5927 2.99122Z" fill="white"/>
<path d="M17.5893 5.99171C18.2092 5.99171 18.7117 5.48792 18.7117 4.86646C18.7117 4.245 18.2092 3.74121 17.5893 3.74121C16.9693 3.74121 16.4668 4.245 16.4668 4.86646C16.4668 5.48792 16.9693 5.99171 17.5893 5.99171Z" fill="white"/>
<path d="M20.5805 8.9922C21.2004 8.9922 21.7029 8.48841 21.7029 7.86695C21.7029 7.24549 21.2004 6.7417 20.5805 6.7417C19.9606 6.7417 19.458 7.24549 19.458 7.86695C19.458 8.48841 19.9606 8.9922 20.5805 8.9922Z" fill="white"/>
<path d="M0 32.9995H14.9662C18.1777 29.7983 25.1432 22.812 27.3133 20.4769C30.0259 17.5581 28.5293 14.3569 28.1551 13.8861C27.8558 13.5095 22.917 8.45646 20.485 5.97705C21.9068 9.51729 21.0774 11.7833 20.485 12.4737L0 32.9995Z" fill="url(#paint0_linear_76_4178)"/>
<defs>
<linearGradient id="paint0_linear_76_4178" x1="14.452" y1="5.97705" x2="14.452" y2="32.9995" gradientUnits="userSpaceOnUse">
<stop stop-color="#FFA800"/>
<stop offset="1" stop-color="#FF0344"/>
</linearGradient>
</defs>
</svg>
